# xmcd
#
# Track frame offsets: 
#        150
#        23835
#        54151
#        69878
#        84657
#        99247
#        121226
#        132026
#        149269
#        176175
#
# Disc length: 3185 seconds
#
# Revision: 0
# Processed by: cddbd v1.5PL3 Copyright (c) Steve Scherf et al.
# Submitted via: ExactAudioCopy v0.95a5
#
DISCID=7b0c6f0a
DTITLE=Aaron King and the Imperials - T.C.B.
DYEAR=1900
DGENRE=Blues
TTITLE0=Backscratcher
TTITLE1=T.C.B.
TTITLE2=She Moves Me
TTITLE3=Oh Baby
TTITLE4=Gangster Of Love
TTITLE5=Junco Partner
TTITLE6=Say Mama
TTITLE7=If I Had My Life To Live Over
TTITLE8=The Stranger
TTITLE9=Try My Love
EXTD=
EXTT0=
EXTT1=
EXTT2=
EXTT3=
EXTT4=
EXTT5=
EXTT6=
EXTT7=
EXTT8=
EXTT9=
PLAYORDER=
